<?xml version="1.0" standalone="no"?>
<!DOCTYPE svg PUBLIC "-//W3C//DTD SVG 20010904//EN"
 "http://www.w3.org/TR/2001/REC-SVG-20010904/DTD/svg10.dtd">
<svg version="1.0" xmlns="http://www.w3.org/2000/svg"
 width="185.000000pt" height="131.000000pt" viewBox="0 0 185.000000 131.000000"
 preserveAspectRatio="xMidYMid meet">

<g transform="translate(0.000000,131.000000) scale(0.100000,-0.100000)"
fill="#000000" stroke="none">
<path d="M485 1286 c-170 -39 -273 -114 -337 -243 -96 -196 -12 -441 236 -688
103 -102 282 -231 429 -309 89 -47 125 -47 213 -1 94 49 104 60 104 112 l0 43
-66 0 c-50 0 -76 -6 -105 -22 l-39 -22 -43 24 c-99 54 -297 193 -364 254 -63
58 -173 190 -173 207 0 4 45 8 100 11 60 2 105 9 112 16 16 16 38 15 38 -3 0
-27 23 -65 40 -65 22 0 36 35 51 125 6 39 15 76 19 84 9 17 11 5 40 -239 25
-208 37 -255 65 -255 28 0 43 37 71 182 13 70 27 135 30 145 5 16 20 18 160
18 147 0 154 1 154 20 0 11 -1 20 -2 20 -2 1 -82 7 -178 15 -202 17 -202 17
-215 -75 -4 -27 -10 -50 -14 -50 -4 0 -15 69 -25 153 -26 224 -50 299 -90 284
-19 -8 -32 -58 -51 -193 -9 -59 -18 -110 -20 -113 -3 -3 -12 5 -21 17 -20 28
-24 28 -69 -8 -36 -29 -42 -30 -132 -30 l-94 0 -16 38 c-21 50 -28 166 -13
222 16 61 96 139 176 171 85 34 240 34 302 1 43 -23 110 -83 151 -137 18 -23
25 -26 29 -15 12 33 105 118 159 146 52 26 68 29 153 29 84 0 102 -3 158 -29
67 -31 124 -86 150 -145 19 -44 20 -181 1 -226 -7 -16 -15 -65 -18 -108 l-6
-77 56 0 56 0 32 70 c48 104 68 212 54 294 -15 90 -46 148 -112 216 -118 120
-316 176 -493 139 -29 -6 -87 -29 -128 -50 -42 -21 -79 -39 -84 -39 -4 0 -22
11 -40 25 -80 61 -266 90 -391 61z"/>
<path d="M1237 703 c-4 -3 -7 -60 -7 -125 l0 -118 -135 0 -135 0 0 -100 0
-100 135 0 134 0 3 -122 3 -123 115 0 115 0 3 123 3 122 134 0 135 0 0 100 0
100 -135 0 -135 0 0 125 0 125 -113 0 c-63 0 -117 -3 -120 -7z"/>
</g>
</svg>
