<?xml version="1.0" standalone="no"?>
<!DOCTYPE svg PUBLIC "-//W3C//DTD SVG 20010904//EN"
 "http://www.w3.org/TR/2001/REC-SVG-20010904/DTD/svg10.dtd">
<svg version="1.0" xmlns="http://www.w3.org/2000/svg"
 width="726.000000pt" height="94.000000pt" viewBox="0 0 726.000000 94.000000"
 preserveAspectRatio="xMidYMid meet">

<g transform="translate(0.000000,94.000000) scale(0.100000,-0.100000)"
fill="#000000" stroke="none">
<path d="M2870 645 c-36 -103 -69 -187 -75 -187 -5 -1 -14 8 -20 18 -32 59
-32 59 -57 20 l-23 -36 -1243 0 c-991 0 -1243 -3 -1239 -12 3 -10 266 -13
1270 -13 l1265 0 18 -58 c10 -32 21 -60 24 -62 4 -3 33 64 65 148 61 161 62
163 70 155 3 -2 25 -128 50 -279 25 -151 50 -285 54 -299 7 -21 18 4 64 145
30 94 63 196 72 228 18 63 30 71 47 30 42 -101 99 -215 105 -209 4 4 28 48 53
99 l45 92 1818 -3 1817 -4 0 23 0 22 -847 -6 c-467 -4 -1294 -7 -1839 -7
l-991 0 -24 -61 c-13 -34 -28 -62 -33 -63 -5 0 -37 67 -70 151 -33 84 -63 149
-66 145 -4 -4 -33 -94 -65 -200 -32 -106 -61 -195 -65 -197 -4 -2 -28 125 -54
283 -26 158 -50 295 -54 305 -5 14 -26 -36 -72 -168z"/>
<path d="M338 713 c-29 -4 -39 -23 -13 -23 23 0 22 -128 -2 -137 -44 -17 81
-30 137 -14 l25 7 -22 12 c-20 11 -23 21 -23 67 0 43 4 57 20 68 21 14 21 14
-2 21 -24 6 -75 6 -120 -1z"/>
<path d="M569 709 c-22 -6 -42 -20 -50 -36 -12 -23 -11 -27 9 -43 12 -10 47
-24 77 -31 69 -15 75 -39 11 -39 -29 0 -52 7 -70 21 -20 16 -30 19 -38 11 -21
-21 19 -50 78 -58 77 -9 142 3 171 32 33 33 18 58 -44 73 -70 18 -95 30 -88
41 9 15 50 12 90 -7 27 -13 38 -14 47 -5 22 22 -13 40 -87 45 -38 3 -86 1
-106 -4z"/>
<path d="M809 697 c-10 -10 -19 -22 -19 -27 0 -16 52 -11 71 6 26 24 39 9 39
-44 0 -52 -6 -65 -35 -77 -19 -7 -19 -8 5 -15 33 -10 130 -11 155 -1 19 8 19
8 -3 20 -19 10 -22 20 -22 66 0 29 4 56 9 60 6 3 24 -3 42 -14 33 -20 59 -18
59 4 0 30 -31 38 -156 39 -108 1 -128 -2 -145 -17z"/>
<path d="M1150 710 c-22 -6 -23 -8 -7 -15 24 -10 25 -132 1 -142 -45 -17 55
-31 125 -17 l32 7 -21 19 c-30 28 -29 113 2 129 22 12 22 12 3 20 -25 10 -102
9 -135 -1z"/>
<path d="M1423 710 c-44 -10 -82 -36 -95 -65 -9 -19 -7 -30 6 -50 10 -14 24
-29 32 -32 23 -8 16 -23 -11 -23 -14 0 -25 -4 -25 -10 0 -5 15 -10 33 -10 17
0 54 -7 81 -15 49 -15 161 -20 190 -9 24 9 19 23 -6 22 -71 -4 -106 13 -55 26
43 10 77 45 77 77 0 70 -116 116 -227 89z m71 -30 c27 -10 56 -56 56 -89 0
-45 -87 -33 -109 15 -15 33 -14 71 2 77 19 8 24 8 51 -3z"/>
<path d="M1760 710 c-55 -3 -77 -7 -61 -12 23 -7 24 -10 18 -70 -4 -41 -11
-66 -22 -74 -25 -18 -8 -22 95 -23 123 0 163 6 189 31 27 24 23 39 -12 56 -30
15 -34 27 -12 36 18 7 20 32 3 43 -21 12 -108 18 -198 13z m91 -20 c24 -13 25
-36 1 -49 -25 -13 -40 3 -34 35 5 27 6 28 33 14z m20 -80 c16 0 10 -48 -7 -54
-26 -10 -34 -7 -43 17 -10 26 5 51 26 42 8 -3 19 -5 24 -5z"/>
<path d="M2110 708 c-44 -12 -90 -55 -90 -84 0 -32 60 -81 110 -89 101 -17
212 22 218 78 9 76 -121 128 -238 95z m85 -28 c28 -11 59 -69 49 -94 -16 -41
-72 -26 -104 27 -24 39 -24 41 -4 61 18 19 24 19 59 6z"/>
<path d="M2405 710 c-29 -7 -29 -8 -7 -15 20 -7 22 -14 22 -76 0 -58 -3 -69
-17 -69 -9 0 -14 -2 -11 -5 10 -10 243 -12 256 -3 16 14 15 48 -2 48 -7 0 -19
-7 -26 -15 -9 -11 -27 -15 -54 -13 l-41 3 -3 62 c-3 56 -1 62 20 69 l23 8 -25
7 c-32 9 -97 9 -135 -1z"/>
<path d="M3611 713 l-25 -5 23 -17 c22 -17 23 -22 16 -79 -5 -44 -11 -62 -22
-62 -8 0 -11 -4 -8 -10 8 -13 92 -13 99 -1 4 5 1 11 -5 13 -13 4 -16 55 -4 66
3 4 24 -13 46 -38 l39 -45 36 43 c19 23 40 42 45 42 13 0 11 -57 -2 -66 -20
-12 13 -24 66 -24 55 0 88 13 61 23 -24 10 -23 132 2 142 16 7 15 8 -3 15 -47
20 -84 11 -129 -30 -24 -22 -47 -40 -53 -40 -5 0 -27 18 -48 40 -40 41 -62 46
-134 33z"/>
<path d="M4130 711 c-83 -4 -110 -9 -98 -16 16 -10 22 -47 19 -112 -1 -24 -6
-33 -18 -33 -9 0 -14 -2 -11 -5 3 -4 68 -7 143 -8 132 -2 138 -1 152 20 14 20
14 23 -1 29 -9 4 -24 0 -34 -9 -22 -19 -73 -30 -106 -21 -22 5 -27 11 -24 33
4 31 29 39 52 16 9 -9 20 -14 25 -11 17 11 19 46 4 62 -15 14 -17 14 -25 0 -5
-9 -20 -16 -33 -16 -20 0 -25 5 -25 24 0 16 7 27 20 31 23 7 76 -2 102 -19 13
-8 21 -7 29 1 17 17 -6 44 -35 41 -11 -1 -73 -4 -136 -7z"/>
<path d="M4365 710 c-16 -7 -16 -9 -4 -9 24 -1 30 -25 23 -88 -6 -43 -11 -56
-28 -63 -20 -8 -20 -8 4 -14 51 -13 253 -1 287 17 84 44 64 135 -34 158 -48
11 -221 10 -248 -1z m207 -37 c22 -20 24 -85 3 -103 -8 -6 -29 -13 -47 -13
l-33 -2 -3 68 -3 67 32 0 c18 0 41 -7 51 -17z"/>
<path d="M4965 711 c-116 -30 -141 -111 -48 -157 47 -23 173 -25 217 -4 29 15
33 37 6 33 -8 -1 -35 -5 -60 -8 -61 -8 -110 21 -110 65 0 54 76 66 126 19 28
-26 68 -22 72 7 2 11 -3 26 -10 31 -17 14 -155 24 -193 14z"/>
<path d="M5300 711 c-63 -4 -106 -9 -94 -12 15 -4 23 -17 27 -43 8 -49 -2
-106 -19 -106 -8 0 -14 -3 -14 -7 0 -5 64 -8 141 -8 135 0 142 1 156 22 14 20
14 23 -1 29 -9 4 -24 0 -34 -9 -21 -19 -83 -31 -112 -22 -16 5 -20 13 -18 33
4 32 29 40 52 17 21 -21 36 -11 36 26 0 29 -22 41 -35 19 -7 -11 -48 -14 -57
-4 -3 3 -4 14 -1 25 8 28 46 34 101 16 28 -10 51 -12 56 -7 15 15 -14 40 -43
38 -14 -1 -78 -4 -141 -7z"/>
<path d="M5537 711 c-17 -6 -16 -8 7 -19 23 -10 26 -17 26 -66 0 -36 -5 -58
-15 -66 -21 -18 -2 -30 45 -30 44 0 73 16 47 26 -23 9 -24 64 0 64 9 0 56 -20
105 -45 49 -25 93 -43 98 -40 6 3 10 35 10 71 0 52 4 68 20 81 24 21 10 33
-40 33 -44 0 -73 -16 -47 -26 20 -7 23 -54 3 -54 -7 0 -48 18 -91 40 -77 39
-125 48 -168 31z"/>
<path d="M5939 702 c-21 -14 -25 -37 -9 -47 6 -4 26 3 45 15 47 29 58 19 51
-44 -3 -28 -6 -54 -6 -57 0 -4 -10 -10 -22 -14 l-23 -7 25 -8 c32 -10 129 -11
155 -1 19 8 19 8 -3 20 -20 11 -23 19 -20 68 3 58 16 74 39 50 22 -21 46 -27
63 -14 14 11 15 15 3 31 -12 17 -29 19 -147 20 -94 1 -138 -3 -151 -12z"/>
<path d="M6376 713 c-110 -3 -118 -5 -98 -19 35 -24 30 -144 -6 -144 -8 0 -13
-2 -10 -5 3 -3 67 -7 143 -8 141 -3 165 3 165 39 0 18 -24 18 -39 0 -15 -17
-82 -30 -111 -21 -13 4 -20 15 -20 31 0 31 28 44 45 21 16 -23 32 -21 40 3 13
40 -17 82 -31 45 -4 -9 -19 -15 -35 -15 -22 0 -29 5 -29 20 0 10 9 24 21 31
23 12 85 4 106 -13 7 -6 20 -8 28 -4 24 9 0 47 -28 44 -12 -1 -76 -4 -141 -5z"/>
<path d="M6606 712 c-16 -3 -15 -6 4 -19 20 -14 22 -22 18 -71 -3 -36 -11 -59
-22 -67 -15 -11 -14 -13 6 -19 61 -16 161 -1 128 19 -5 3 -10 17 -10 31 0 21
4 25 22 22 12 -2 28 -14 35 -28 7 -13 20 -30 29 -37 21 -15 102 -17 124 -3 13
8 12 10 -3 10 -10 0 -22 11 -27 25 -5 14 -21 30 -35 37 -30 14 -32 24 -5 31
27 7 26 43 -2 59 -21 11 -216 18 -262 10z m174 -46 c0 -16 -7 -27 -20 -31 -26
-8 -39 1 -35 23 2 9 4 20 4 25 1 4 12 7 26 7 20 0 25 -5 25 -24z"/>
</g>
</svg>
