<?xml version="1.0" standalone="no"?>
<!DOCTYPE svg PUBLIC "-//W3C//DTD SVG 20010904//EN"
 "http://www.w3.org/TR/2001/REC-SVG-20010904/DTD/svg10.dtd">
<svg version="1.0" xmlns="http://www.w3.org/2000/svg"
 width="243.000000pt" height="256.000000pt" viewBox="0 0 243.000000 256.000000"
 preserveAspectRatio="xMidYMid meet">

<g transform="translate(0.000000,256.000000) scale(0.100000,-0.100000)"
fill="#000000" stroke="none">
<path d="M595 2554 c-183 -43 -244 -73 -341 -169 -139 -137 -217 -317 -244
-559 -25 -218 42 -494 166 -693 52 -84 143 -200 198 -252 l35 -34 -37 75 c-34
66 -79 194 -96 270 l-6 28 172 2 172 3 22 55 c12 30 26 54 30 53 5 0 18 -25
29 -55 l21 -53 64 -3 c58 -3 69 -6 100 -37 21 -20 40 -31 47 -27 6 4 19 63 29
132 9 69 20 128 24 133 3 4 12 -48 19 -115 33 -337 45 -434 53 -443 17 -19 35
21 57 125 46 212 53 242 60 233 4 -4 16 -45 26 -90 10 -47 24 -84 32 -87 9 -4
34 25 75 89 l61 95 143 0 c83 0 153 -5 167 -11 33 -15 67 3 67 37 0 30 -43 55
-62 36 -8 -8 -62 -12 -167 -12 -86 0 -161 -4 -166 -8 -6 -4 -30 -38 -54 -75
-30 -46 -47 -64 -52 -55 -4 7 -17 60 -30 117 -21 93 -38 126 -56 107 -3 -3
-21 -74 -40 -158 -19 -84 -36 -154 -38 -156 -7 -7 -30 182 -61 520 -7 74 -15
93 -36 85 -10 -3 -22 -64 -43 -216 -16 -116 -32 -211 -35 -211 -4 0 -15 9 -25
20 -14 16 -31 20 -75 20 l-57 0 -29 78 c-39 104 -55 104 -98 -3 l-32 -80 -161
-3 -161 -2 -13 72 c-6 40 -12 141 -12 223 0 122 4 167 23 240 58 233 175 355
367 385 227 35 402 -103 469 -370 10 -41 19 -76 20 -78 1 -2 36 15 77 37 151
83 313 121 440 102 202 -31 329 -170 329 -361 1 -223 -178 -456 -519 -674 -51
-33 -91 -61 -90 -63 5 -4 158 49 277 97 126 50 237 80 299 80 46 0 48 1 104
73 72 90 139 219 169 323 19 66 23 101 22 209 -1 113 -5 140 -27 203 -33 92
-103 198 -170 257 -66 57 -182 117 -272 141 -110 28 -313 23 -426 -12 -12 -3
-32 19 -73 80 -101 152 -244 260 -404 307 -65 19 -217 33 -257 23z"/>
<path d="M2291 1282 c-27 -27 -71 -96 -106 -162 -33 -63 -78 -142 -100 -175
l-40 -60 20 -38 c35 -65 12 -87 -273 -260 -79 -48 -167 -94 -195 -102 -56 -17
-177 -21 -161 -6 5 6 56 26 113 46 121 42 172 67 291 140 113 71 170 121 170
150 0 71 -122 64 -350 -19 -52 -19 -139 -51 -193 -70 -54 -20 -113 -36 -132
-36 -19 0 -92 10 -162 21 -172 29 -443 31 -555 5 -304 -69 -465 -246 -513
-566 -22 -142 -24 -138 47 -87 84 60 151 92 245 119 109 32 331 31 518 -1 72
-12 166 -26 210 -32 153 -17 389 22 518 87 189 96 451 324 539 469 20 33 62
125 93 205 31 80 79 201 107 270 46 116 48 125 32 137 -37 27 -75 16 -123 -35z"/>
</g>
</svg>
